<mxfile host="Electron" modified="2025-03-29T05:46:07.147Z" agent="Mozilla/5.0 (Windows NT 10.0; Win64; x64) AppleWebKit/537.36 (KHTML, like Gecko) draw.io/24.6.1 Chrome/124.0.6367.207 Electron/30.0.6 Safari/537.36" etag="HsJJ92XNopcn6qDk3fEu" version="24.6.1" type="device">
  <diagram id="C5RBs43oDa-KdzZeNtuy" name="Page-1">
    <mxGraphModel dx="2390" dy="1393" grid="1" gridSize="10" guides="1" tooltips="1" connect="1" arrows="1" fold="1" page="1" pageScale="1" pageWidth="827" pageHeight="1169" math="0" shadow="0">
      <root>
        <mxCell id="WIyWlLk6GJQsqaUBKTNV-0" />
        <mxCell id="WIyWlLk6GJQsqaUBKTNV-1" parent="WIyWlLk6GJQsqaUBKTNV-0" />
        <mxCell id="HKEIIC1cY6O2OnKMWoh6-0" value="&lt;span style=&quot;font-size: 35px;&quot;&gt;&lt;b&gt;初始化WIFI模块&lt;/b&gt;&lt;/span&gt;" style="rounded=1;whiteSpace=wrap;html=1;strokeWidth=2;" vertex="1" parent="WIyWlLk6GJQsqaUBKTNV-1">
          <mxGeometry x="190" y="40" width="390" height="80" as="geometry" />
        </mxCell>
        <mxCell id="HKEIIC1cY6O2OnKMWoh6-1" value="&lt;span style=&quot;font-size: 30px;&quot;&gt;&lt;b&gt;连接MQTT服务器&lt;/b&gt;&lt;/span&gt;" style="rounded=1;whiteSpace=wrap;html=1;strokeWidth=2;" vertex="1" parent="WIyWlLk6GJQsqaUBKTNV-1">
          <mxGeometry x="190" y="160" width="390" height="80" as="geometry" />
        </mxCell>
        <mxCell id="HKEIIC1cY6O2OnKMWoh6-2" value="&lt;span style=&quot;font-size: 30px;&quot;&gt;&lt;b&gt;订阅主题&lt;/b&gt;&lt;/span&gt;" style="rounded=1;whiteSpace=wrap;html=1;strokeWidth=2;" vertex="1" parent="WIyWlLk6GJQsqaUBKTNV-1">
          <mxGeometry x="190" y="280" width="390" height="80" as="geometry" />
        </mxCell>
        <mxCell id="HKEIIC1cY6O2OnKMWoh6-3" value="" style="endArrow=classic;html=1;rounded=0;strokeWidth=4;" edge="1" parent="WIyWlLk6GJQsqaUBKTNV-1">
          <mxGeometry width="50" height="50" relative="1" as="geometry">
            <mxPoint x="380" y="120" as="sourcePoint" />
            <mxPoint x="380" y="160" as="targetPoint" />
          </mxGeometry>
        </mxCell>
        <mxCell id="HKEIIC1cY6O2OnKMWoh6-4" value="" style="endArrow=classic;html=1;rounded=0;strokeWidth=4;" edge="1" parent="WIyWlLk6GJQsqaUBKTNV-1">
          <mxGeometry width="50" height="50" relative="1" as="geometry">
            <mxPoint x="380" y="240" as="sourcePoint" />
            <mxPoint x="380" y="280" as="targetPoint" />
          </mxGeometry>
        </mxCell>
        <mxCell id="HKEIIC1cY6O2OnKMWoh6-25" value="&lt;span style=&quot;font-size: 20px;&quot;&gt;&lt;b&gt;传感器是否采集到数据&lt;/b&gt;&lt;/span&gt;" style="rhombus;whiteSpace=wrap;html=1;strokeWidth=2;" vertex="1" parent="WIyWlLk6GJQsqaUBKTNV-1">
          <mxGeometry x="260" y="440" width="240" height="200" as="geometry" />
        </mxCell>
        <mxCell id="HKEIIC1cY6O2OnKMWoh6-26" value="" style="endArrow=classic;html=1;rounded=0;strokeWidth=4;entryX=0.5;entryY=0;entryDx=0;entryDy=0;" edge="1" parent="WIyWlLk6GJQsqaUBKTNV-1" target="HKEIIC1cY6O2OnKMWoh6-25">
          <mxGeometry width="50" height="50" relative="1" as="geometry">
            <mxPoint x="380" y="360" as="sourcePoint" />
            <mxPoint x="380" y="400" as="targetPoint" />
          </mxGeometry>
        </mxCell>
        <mxCell id="HKEIIC1cY6O2OnKMWoh6-27" value="" style="endArrow=classic;html=1;rounded=0;strokeWidth=4;" edge="1" parent="WIyWlLk6GJQsqaUBKTNV-1">
          <mxGeometry width="50" height="50" relative="1" as="geometry">
            <mxPoint x="379.33" y="640" as="sourcePoint" />
            <mxPoint x="379" y="680" as="targetPoint" />
          </mxGeometry>
        </mxCell>
        <mxCell id="HKEIIC1cY6O2OnKMWoh6-28" value="&lt;span style=&quot;font-size: 30px;&quot;&gt;&lt;b&gt;发布主题&lt;/b&gt;&lt;/span&gt;" style="rounded=1;whiteSpace=wrap;html=1;strokeWidth=2;" vertex="1" parent="WIyWlLk6GJQsqaUBKTNV-1">
          <mxGeometry x="185" y="680" width="390" height="80" as="geometry" />
        </mxCell>
        <mxCell id="HKEIIC1cY6O2OnKMWoh6-29" value="&lt;span style=&quot;font-size: 30px;&quot;&gt;&lt;b&gt;构造消息，并发送&lt;/b&gt;&lt;/span&gt;" style="rounded=1;whiteSpace=wrap;html=1;strokeWidth=2;" vertex="1" parent="WIyWlLk6GJQsqaUBKTNV-1">
          <mxGeometry x="185" y="800" width="390" height="80" as="geometry" />
        </mxCell>
        <mxCell id="HKEIIC1cY6O2OnKMWoh6-30" value="" style="endArrow=classic;html=1;rounded=0;strokeWidth=4;" edge="1" parent="WIyWlLk6GJQsqaUBKTNV-1">
          <mxGeometry width="50" height="50" relative="1" as="geometry">
            <mxPoint x="379.88" y="760" as="sourcePoint" />
            <mxPoint x="379.55" y="800" as="targetPoint" />
          </mxGeometry>
        </mxCell>
        <mxCell id="HKEIIC1cY6O2OnKMWoh6-31" value="&lt;font style=&quot;font-size: 30px;&quot;&gt;&lt;b&gt;YES&lt;/b&gt;&lt;/font&gt;" style="text;html=1;align=center;verticalAlign=middle;whiteSpace=wrap;rounded=0;" vertex="1" parent="WIyWlLk6GJQsqaUBKTNV-1">
          <mxGeometry x="380" y="640" width="90" height="40" as="geometry" />
        </mxCell>
        <mxCell id="HKEIIC1cY6O2OnKMWoh6-32" value="" style="endArrow=classic;html=1;rounded=0;strokeWidth=4;entryX=0;entryY=0.5;entryDx=0;entryDy=0;" edge="1" parent="WIyWlLk6GJQsqaUBKTNV-1" target="HKEIIC1cY6O2OnKMWoh6-25">
          <mxGeometry width="50" height="50" relative="1" as="geometry">
            <mxPoint x="379.46" y="880" as="sourcePoint" />
            <mxPoint x="120" y="520" as="targetPoint" />
            <Array as="points">
              <mxPoint x="380" y="960" />
              <mxPoint x="120" y="960" />
              <mxPoint x="120" y="540" />
            </Array>
          </mxGeometry>
        </mxCell>
        <mxCell id="HKEIIC1cY6O2OnKMWoh6-34" value="&lt;font style=&quot;font-size: 20px;&quot;&gt;&lt;b&gt;是否接收到命令&lt;/b&gt;&lt;/font&gt;" style="rhombus;whiteSpace=wrap;html=1;strokeWidth=2;" vertex="1" parent="WIyWlLk6GJQsqaUBKTNV-1">
          <mxGeometry x="730" y="380" width="240" height="200" as="geometry" />
        </mxCell>
        <mxCell id="HKEIIC1cY6O2OnKMWoh6-35" value="&lt;font style=&quot;font-size: 30px;&quot;&gt;&lt;b&gt;NO&lt;/b&gt;&lt;/font&gt;" style="text;html=1;align=center;verticalAlign=middle;whiteSpace=wrap;rounded=0;" vertex="1" parent="WIyWlLk6GJQsqaUBKTNV-1">
          <mxGeometry x="550" y="500" width="60" height="40" as="geometry" />
        </mxCell>
        <mxCell id="HKEIIC1cY6O2OnKMWoh6-36" value="" style="endArrow=classic;html=1;rounded=0;strokeWidth=4;entryX=0.5;entryY=0;entryDx=0;entryDy=0;" edge="1" parent="WIyWlLk6GJQsqaUBKTNV-1" target="HKEIIC1cY6O2OnKMWoh6-34">
          <mxGeometry width="50" height="50" relative="1" as="geometry">
            <mxPoint x="580" y="320" as="sourcePoint" />
            <mxPoint x="850" y="320" as="targetPoint" />
            <Array as="points">
              <mxPoint x="850" y="320" />
            </Array>
          </mxGeometry>
        </mxCell>
        <mxCell id="HKEIIC1cY6O2OnKMWoh6-39" value="&lt;font style=&quot;font-size: 30px;&quot;&gt;&lt;b&gt;YES&lt;/b&gt;&lt;/font&gt;" style="text;html=1;align=center;verticalAlign=middle;whiteSpace=wrap;rounded=0;" vertex="1" parent="WIyWlLk6GJQsqaUBKTNV-1">
          <mxGeometry x="860" y="585" width="90" height="40" as="geometry" />
        </mxCell>
        <mxCell id="HKEIIC1cY6O2OnKMWoh6-40" value="" style="endArrow=classic;html=1;rounded=0;strokeWidth=4;" edge="1" parent="WIyWlLk6GJQsqaUBKTNV-1">
          <mxGeometry width="50" height="50" relative="1" as="geometry">
            <mxPoint x="849.5699999999999" y="580" as="sourcePoint" />
            <mxPoint x="850" y="640" as="targetPoint" />
          </mxGeometry>
        </mxCell>
        <mxCell id="HKEIIC1cY6O2OnKMWoh6-42" value="&lt;span style=&quot;font-size: 30px;&quot;&gt;&lt;b&gt;解析命令&lt;/b&gt;&lt;/span&gt;" style="rounded=1;whiteSpace=wrap;html=1;strokeWidth=2;" vertex="1" parent="WIyWlLk6GJQsqaUBKTNV-1">
          <mxGeometry x="710" y="640" width="390" height="80" as="geometry" />
        </mxCell>
        <mxCell id="HKEIIC1cY6O2OnKMWoh6-43" value="" style="endArrow=classic;html=1;rounded=0;strokeWidth=4;" edge="1" parent="WIyWlLk6GJQsqaUBKTNV-1">
          <mxGeometry width="50" height="50" relative="1" as="geometry">
            <mxPoint x="849.5699999999999" y="720" as="sourcePoint" />
            <mxPoint x="850" y="780" as="targetPoint" />
          </mxGeometry>
        </mxCell>
        <mxCell id="HKEIIC1cY6O2OnKMWoh6-44" value="&lt;span style=&quot;font-size: 30px;&quot;&gt;&lt;b&gt;执行操作&lt;/b&gt;&lt;/span&gt;" style="rounded=1;whiteSpace=wrap;html=1;strokeWidth=2;" vertex="1" parent="WIyWlLk6GJQsqaUBKTNV-1">
          <mxGeometry x="720" y="780" width="390" height="80" as="geometry" />
        </mxCell>
        <mxCell id="HKEIIC1cY6O2OnKMWoh6-45" value="" style="endArrow=classic;startArrow=classic;html=1;rounded=0;entryX=0;entryY=0.5;entryDx=0;entryDy=0;strokeWidth=4;" edge="1" parent="WIyWlLk6GJQsqaUBKTNV-1" target="HKEIIC1cY6O2OnKMWoh6-34">
          <mxGeometry width="50" height="50" relative="1" as="geometry">
            <mxPoint x="500" y="540" as="sourcePoint" />
            <mxPoint x="550" y="490" as="targetPoint" />
            <Array as="points">
              <mxPoint x="640" y="540" />
              <mxPoint x="640" y="480" />
            </Array>
          </mxGeometry>
        </mxCell>
        <mxCell id="HKEIIC1cY6O2OnKMWoh6-46" value="" style="endArrow=classic;html=1;rounded=0;strokeWidth=4;" edge="1" parent="WIyWlLk6GJQsqaUBKTNV-1" target="HKEIIC1cY6O2OnKMWoh6-25">
          <mxGeometry width="50" height="50" relative="1" as="geometry">
            <mxPoint x="849.5699999999999" y="860" as="sourcePoint" />
            <mxPoint x="850" y="920" as="targetPoint" />
            <Array as="points">
              <mxPoint x="850" y="960" />
              <mxPoint x="660" y="960" />
              <mxPoint x="660" y="600" />
            </Array>
          </mxGeometry>
        </mxCell>
      </root>
    </mxGraphModel>
  </diagram>
</mxfile>
